<svg width="42" height="46" viewBox="0 0 42 46" fill="none" xmlns="http://www.w3.org/2000/svg">
<path d="M13.1874 35.7813C13.1874 36.2448 13.05 36.698 12.7924 37.0834C12.5349 37.4688 12.1689 37.7692 11.7406 37.9466C11.3123 38.124 10.8411 38.1704 10.3864 38.08C9.93179 37.9895 9.51418 37.7663 9.1864 37.4385C8.85862 37.1108 8.6354 36.6932 8.54496 36.2385C8.45453 35.7839 8.50094 35.3126 8.67834 34.8844C8.85573 34.4561 9.15614 34.09 9.54156 33.8325C9.92699 33.575 10.3801 33.4375 10.8437 33.4375C11.4653 33.4375 12.0614 33.6844 12.501 34.124C12.9405 34.5635 13.1874 35.1597 13.1874 35.7813ZM18.6562 36.5625C18.1926 36.5625 17.7395 36.7 17.3541 36.9575C16.9686 37.215 16.6682 37.5811 16.4908 38.0094C16.3134 38.4376 16.267 38.9089 16.3575 39.3635C16.4479 39.8182 16.6711 40.2358 16.9989 40.5635C17.3267 40.8913 17.7443 41.1145 18.1989 41.205C18.6536 41.2954 19.1248 41.249 19.5531 41.0716C19.9814 40.8942 20.3474 40.5938 20.6049 40.2084C20.8625 39.823 20.9999 39.3698 20.9999 38.9063C20.9999 38.2847 20.753 37.6885 20.3135 37.249C19.8739 36.8094 19.2778 36.5625 18.6562 36.5625ZM28.0312 33.4375C27.5676 33.4375 27.1145 33.575 26.7291 33.8325C26.3436 34.09 26.0432 34.4561 25.8658 34.8844C25.6884 35.3126 25.642 35.7839 25.7325 36.2385C25.8229 36.6932 26.0461 37.1108 26.3739 37.4385C26.7017 37.7663 27.1193 37.9895 27.5739 38.08C28.0286 38.1704 28.4998 38.124 28.9281 37.9466C29.3564 37.7692 29.7224 37.4688 29.9799 37.0834C30.2375 36.698 30.3749 36.2448 30.3749 35.7813C30.3749 35.1597 30.128 34.5635 29.6885 34.124C29.2489 33.6844 28.6528 33.4375 28.0312 33.4375ZM9.28118 41.25C8.81763 41.25 8.36449 41.3875 7.97906 41.645C7.59363 41.9025 7.29323 42.2686 7.11584 42.6969C6.93844 43.1251 6.89203 43.5964 6.98246 44.051C7.0729 44.5057 7.29612 44.9233 7.6239 45.251C7.95168 45.5788 8.36929 45.802 8.82394 45.8925C9.27858 45.9829 9.74983 45.9365 10.1781 45.7591C10.6064 45.5817 10.9724 45.2813 11.2299 44.8959C11.4875 44.5105 11.6249 44.0573 11.6249 43.5938C11.6249 42.9722 11.378 42.376 10.9385 41.9365C10.4989 41.4969 9.90278 41.25 9.28118 41.25ZM26.4687 41.25C26.0051 41.25 25.552 41.3875 25.1666 41.645C24.7811 41.9025 24.4807 42.2686 24.3033 42.6969C24.1259 43.1251 24.0795 43.5964 24.17 44.051C24.2604 44.5057 24.4836 44.9233 24.8114 45.251C25.1392 45.5788 25.5568 45.802 26.0114 45.8925C26.4661 45.9829 26.9373 45.9365 27.3656 45.7591C27.7939 45.5817 28.1599 45.2813 28.4174 44.8959C28.675 44.5105 28.8124 44.0573 28.8124 43.5938C28.8124 42.9722 28.5655 42.376 28.126 41.9365C27.6864 41.4969 27.0903 41.25 26.4687 41.25ZM41.287 14.5996C41.0653 10.807 39.3977 7.24367 36.6278 4.6435C33.8578 2.04333 30.1963 0.604214 26.3972 0.622486C22.5981 0.640759 18.9506 2.11503 16.2058 4.74172C13.461 7.36842 11.8278 10.9476 11.6425 14.7422C11.6197 15.1471 11.4438 15.5283 11.1503 15.8083C10.8569 16.0883 10.468 16.2462 10.0624 16.25H9.94524C9.53277 16.2132 9.15096 16.0168 8.88103 15.7028C8.61111 15.3887 8.47438 14.9817 8.49993 14.5684C8.55422 13.482 8.70653 12.4027 8.95501 11.3438C8.98707 11.2108 8.98365 11.0717 8.94511 10.9405C8.90657 10.8093 8.83425 10.6905 8.73538 10.596C8.63652 10.5014 8.51457 10.4345 8.38174 10.4019C8.2489 10.3693 8.10984 10.3722 7.97845 10.4102C5.86339 11.0351 4.00866 12.3303 2.69364 14.1008C1.37862 15.8713 0.674531 18.0212 0.68743 20.2266C0.726492 25.834 5.39837 30.3125 11.0077 30.3125H26.4687C28.4905 30.3103 30.4907 29.8954 32.3466 29.0934C34.2026 28.2914 35.8754 27.119 37.2626 25.6481C38.6498 24.1772 39.7222 22.4386 40.4142 20.5389C41.1062 18.6391 41.4032 16.6181 41.287 14.5996Z" fill="url(#paint0_linear_36_256)"/>
<defs>
<linearGradient id="paint0_linear_36_256" x1="20.9994" y1="0.622314" x2="20.9994" y2="45.9375" gradientUnits="userSpaceOnUse">
<stop stop-color="#7ABCD7"/>
<stop offset="1" stop-color="#D9D9D9"/>
</linearGradient>
</defs>
</svg>
